<?xml version="1.0" standalone="no"?>
<svg viewBox="0 0 200 200" xmlns="http://www.w3.org/2000/svg">
  <path fill="#006553" d="M30.3,-49.3C39.8,-41.1,48.3,-33.5,56.2,-23.5C64.2,-13.5,71.6,-1.1,67.1,7.6C62.6,16.2,46.3,21.1,36.4,30.3C26.5,39.6,23.1,53.2,14.4,61.5C5.7,69.8,-8.3,72.7,-16.5,65.8C-24.7,59,-27.2,42.4,-39.8,32.1C-52.3,21.9,-74.9,17.9,-82.9,7.7C-90.9,-2.5,-84.3,-19,-71.8,-27.2C-59.4,-35.4,-41,-35.4,-28.1,-42C-15.2,-48.5,-7.6,-61.6,1.4,-63.9C10.4,-66.1,20.9,-57.4,30.3,-49.3Z" transform="translate(100 100)" />
</svg>
