<svg width="252" height="101" viewBox="0 0 252 101" fill="none" xmlns="http://www.w3.org/2000/svg">
<rect width="252" height="101" fill="white"/>
<path d="M29.374 29.6641H252" stroke="#F1F1F1" stroke-width="0.825153"/>
<path d="M29.374 56.0311H252" stroke="#F1F1F1" stroke-width="0.825153"/>
<mask id="path-3-inside-1_232_1664" fill="white">
<path d="M29.374 2.47656H251.227V29.7066H29.374V2.47656Z"/>
</mask>
<path d="M29.374 2.47656H251.227V29.7066H29.374V2.47656Z" fill="white"/>
<path d="M29.374 3.30172H251.227V1.65141H29.374V3.30172ZM251.227 28.8815H29.374V30.5318H251.227V28.8815Z" fill="#F1F1F1" mask="url(#path-3-inside-1_232_1664)"/>
<mask id="path-5-inside-2_232_1664" fill="white">
<path d="M29.374 28.8828H251.227V56.1129H29.374V28.8828Z"/>
</mask>
<path d="M29.374 28.8828H251.227V56.1129H29.374V28.8828Z" fill="white"/>
<path d="M29.374 29.708H251.227V28.0577H29.374V29.708ZM251.227 55.2877H29.374V56.938H251.227V55.2877Z" fill="#F1F1F1" mask="url(#path-5-inside-2_232_1664)"/>
<mask id="path-7-inside-3_232_1664" fill="white">
<path d="M29.374 55.2891H251.227V82.5191H29.374V55.2891Z"/>
</mask>
<path d="M29.374 55.2891H251.227V82.5191H29.374V55.2891Z" fill="white"/>
<path d="M29.374 56.1142H251.227V54.4639H29.374V56.1142ZM251.227 81.694H29.374V83.3443H251.227V81.694Z" fill="#F1F1F1" mask="url(#path-7-inside-3_232_1664)"/>
<path d="M5.90861 65.5096H6.78065V70.6574C6.78065 71.1169 6.69625 71.5072 6.52747 71.8284C6.35869 72.1495 6.12076 72.3933 5.81367 72.5597C5.50658 72.7262 5.1444 72.8094 4.72714 72.8094C4.33331 72.8094 3.98286 72.7379 3.67577 72.5949C3.36868 72.4496 3.12723 72.2433 2.95142 71.976C2.7756 71.7088 2.6877 71.3912 2.6877 71.0231H3.54567C3.54567 71.2271 3.59607 71.4052 3.69687 71.5576C3.80001 71.7076 3.94066 71.8248 4.11882 71.9092C4.29698 71.9936 4.49975 72.0358 4.72714 72.0358C4.97797 72.0358 5.19129 71.9831 5.3671 71.8776C5.54291 71.7721 5.67653 71.6174 5.76796 71.4134C5.86172 71.2071 5.90861 70.9551 5.90861 70.6574V65.5096ZM10.0051 72.8375C9.66282 72.8375 9.35222 72.7731 9.07326 72.6441C8.7943 72.5129 8.57278 72.3241 8.40868 72.078C8.24459 71.8295 8.16254 71.5295 8.16254 71.1778C8.16254 70.8684 8.22349 70.6176 8.34539 70.4254C8.46729 70.2308 8.63021 70.0784 8.83415 69.9682C9.0381 69.8581 9.26314 69.776 9.50928 69.7221C9.75776 69.6658 10.0074 69.6213 10.2582 69.5885C10.5864 69.5463 10.8525 69.5146 11.0564 69.4935C11.2627 69.4701 11.4128 69.4314 11.5065 69.3775C11.6026 69.3236 11.6507 69.2298 11.6507 69.0962V69.0681C11.6507 68.7211 11.5558 68.4516 11.3659 68.2593C11.1783 68.0671 10.8935 67.971 10.5114 67.971C10.1152 67.971 9.80464 68.0577 9.5796 68.2312C9.35456 68.4047 9.19633 68.5899 9.10491 68.7868L8.31726 68.5055C8.45791 68.1773 8.64544 67.9218 8.87986 67.7389C9.11663 67.5537 9.37449 67.4248 9.65344 67.3521C9.93475 67.2771 10.2114 67.2396 10.4833 67.2396C10.6568 67.2396 10.856 67.2607 11.0811 67.3029C11.3084 67.3428 11.5276 67.426 11.7386 67.5526C11.9519 67.6791 12.1289 67.8702 12.2696 68.1257C12.4102 68.3812 12.4805 68.7235 12.4805 69.1525V72.7109H11.6507V71.9796H11.6085C11.5522 72.0968 11.4585 72.2222 11.3272 72.3558C11.1959 72.4894 11.0213 72.6031 10.8033 72.6969C10.5853 72.7906 10.3192 72.8375 10.0051 72.8375ZM10.1317 72.0921C10.4598 72.0921 10.7365 72.0276 10.9615 71.8987C11.1889 71.7697 11.36 71.6033 11.4749 71.3994C11.5921 71.1954 11.6507 70.9809 11.6507 70.7559V69.9964C11.6155 70.0386 11.5382 70.0772 11.4186 70.1124C11.3014 70.1452 11.1654 70.1745 11.0107 70.2003C10.8584 70.2238 10.7095 70.2449 10.5642 70.2636C10.4212 70.28 10.3051 70.2941 10.216 70.3058C10.0004 70.3339 9.79878 70.3796 9.61125 70.4429C9.42606 70.5039 9.27603 70.5965 9.16117 70.7207C9.04864 70.8426 8.99238 71.0091 8.99238 71.22C8.99238 71.5084 9.09904 71.7264 9.31237 71.8741C9.52803 72.0194 9.80113 72.0921 10.1317 72.0921ZM14.825 69.4619V72.7109H13.9952V67.3099H14.7969V68.1538H14.8672C14.9938 67.8796 15.186 67.6592 15.4439 67.4928C15.7017 67.324 16.0346 67.2396 16.4425 67.2396C16.8082 67.2396 17.1282 67.3146 17.4024 67.4646C17.6767 67.6123 17.89 67.8374 18.0424 68.1398C18.1948 68.4398 18.271 68.8196 18.271 69.279V72.7109H17.4411V69.3353C17.4411 68.911 17.3309 68.5805 17.1106 68.3437C16.8902 68.1046 16.5878 67.9851 16.2034 67.9851C15.9385 67.9851 15.7017 68.0425 15.4931 68.1574C15.2868 68.2722 15.1239 68.4398 15.0043 68.6602C14.8848 68.8805 14.825 69.1478 14.825 69.4619Z" fill="black"/>
<rect x="1.93115" y="39" width="14.4828" height="6" rx="3" fill="url(#paint0_linear_232_1664)" fill-opacity="0.5"/>
<rect x="1.93115" y="12" width="14.4828" height="6" rx="3" fill="url(#paint1_linear_232_1664)" fill-opacity="0.5"/>
<path d="M43.5261 92.9492C43.0846 92.9492 42.7086 92.8291 42.398 92.5888C42.0874 92.3466 41.85 91.9959 41.6859 91.5369C41.5218 91.0758 41.4398 90.5191 41.4398 89.8666C41.4398 89.2181 41.5218 88.6643 41.6859 88.2052C41.852 87.7442 42.0903 87.3925 42.4009 87.1503C42.7135 86.9061 43.0885 86.784 43.5261 86.784C43.9637 86.784 44.3378 86.9061 44.6484 87.1503C44.961 87.3925 45.1993 87.7442 45.3634 88.2052C45.5294 88.6643 45.6125 89.2181 45.6125 89.8666C45.6125 90.5191 45.5304 91.0758 45.3663 91.5369C45.2022 91.9959 44.9649 92.3466 44.6543 92.5888C44.3437 92.8291 43.9676 92.9492 43.5261 92.9492ZM43.5261 92.3046C43.9637 92.3046 44.3036 92.0936 44.5458 91.6717C44.7881 91.2497 44.9092 90.648 44.9092 89.8666C44.9092 89.347 44.8535 88.9045 44.7422 88.5392C44.6328 88.1739 44.4745 87.8956 44.2675 87.7041C44.0624 87.5127 43.8152 87.417 43.5261 87.417C43.0925 87.417 42.7535 87.6309 42.5093 88.0587C42.2652 88.4845 42.1431 89.0872 42.1431 89.8666C42.1431 90.3863 42.1978 90.8277 42.3072 91.1911C42.4165 91.5544 42.5738 91.8309 42.7789 92.0204C42.986 92.2098 43.2351 92.3046 43.5261 92.3046Z" fill="black"/>
<path d="M70.7641 92.8672V92.3397L72.7449 90.1714C72.9774 89.9174 73.1688 89.6967 73.3192 89.5091C73.4697 89.3197 73.581 89.1419 73.6533 88.9758C73.7275 88.8078 73.7646 88.632 73.7646 88.4484C73.7646 88.2374 73.7138 88.0548 73.6123 87.9004C73.5126 87.7461 73.3759 87.627 73.202 87.543C73.0282 87.459 72.8328 87.417 72.616 87.417C72.3855 87.417 72.1843 87.4648 72.0123 87.5605C71.8424 87.6543 71.7105 87.7862 71.6168 87.9561C71.525 88.1261 71.479 88.3253 71.479 88.5539H70.7875C70.7875 88.2023 70.8686 87.8936 71.0307 87.6279C71.1929 87.3623 71.4136 87.1552 71.693 87.0067C71.9743 86.8583 72.2897 86.784 72.6394 86.784C72.991 86.784 73.3026 86.8583 73.5742 87.0067C73.8457 87.1552 74.0586 87.3554 74.213 87.6074C74.3673 87.8594 74.4444 88.1397 74.4444 88.4484C74.4444 88.6691 74.4044 88.885 74.3243 89.096C74.2462 89.305 74.1094 89.5384 73.9141 89.7963C73.7207 90.0522 73.4521 90.3648 73.1083 90.734L71.7603 92.1757V92.2225H74.5499V92.8672H70.7641ZM77.7175 92.9492C77.276 92.9492 76.9 92.8291 76.5894 92.5888C76.2788 92.3466 76.0414 91.9959 75.8773 91.5369C75.7132 91.0758 75.6312 90.5191 75.6312 89.8666C75.6312 89.2181 75.7132 88.6643 75.8773 88.2052C76.0434 87.7442 76.2817 87.3925 76.5923 87.1503C76.9049 86.9061 77.2799 86.784 77.7175 86.784C78.1551 86.784 78.5292 86.9061 78.8398 87.1503C79.1523 87.3925 79.3907 87.7442 79.5548 88.2052C79.7208 88.6643 79.8038 89.2181 79.8038 89.8666C79.8038 90.5191 79.7218 91.0758 79.5577 91.5369C79.3936 91.9959 79.1563 92.3466 78.8457 92.5888C78.535 92.8291 78.159 92.9492 77.7175 92.9492ZM77.7175 92.3046C78.1551 92.3046 78.495 92.0936 78.7372 91.6717C78.9795 91.2497 79.1006 90.648 79.1006 89.8666C79.1006 89.347 79.0449 88.9045 78.9336 88.5392C78.8242 88.1739 78.6659 87.8956 78.4589 87.7041C78.2537 87.5127 78.0066 87.417 77.7175 87.417C77.2838 87.417 76.9449 87.6309 76.7007 88.0587C76.4565 88.4845 76.3344 89.0872 76.3344 89.8666C76.3344 90.3863 76.3891 90.8277 76.4985 91.1911C76.6079 91.5544 76.7652 91.8309 76.9703 92.0204C77.1774 92.2098 77.4264 92.3046 77.7175 92.3046Z" fill="black"/>
<path d="M102.168 91.6365V91.0387L104.805 86.8661H105.239V87.792H104.946L102.953 90.945V90.9918H106.504V91.6365H102.168ZM104.992 92.8672V91.4548V91.1764V86.8661H105.684V92.8672H104.992ZM109.56 92.9492C109.118 92.9492 108.742 92.8291 108.432 92.5888C108.121 92.3466 107.884 91.9959 107.72 91.5369C107.556 91.0758 107.474 90.5191 107.474 89.8666C107.474 89.2181 107.556 88.6643 107.72 88.2052C107.886 87.7442 108.124 87.3925 108.435 87.1503C108.747 86.9061 109.122 86.784 109.56 86.784C109.998 86.784 110.372 86.9061 110.682 87.1503C110.995 87.3925 111.233 87.7442 111.397 88.2052C111.563 88.6643 111.646 89.2181 111.646 89.8666C111.646 90.5191 111.564 91.0758 111.4 91.5369C111.236 91.9959 110.999 92.3466 110.688 92.5888C110.377 92.8291 110.001 92.9492 109.56 92.9492ZM109.56 92.3046C109.998 92.3046 110.337 92.0936 110.58 91.6717C110.822 91.2497 110.943 90.648 110.943 89.8666C110.943 89.347 110.887 88.9045 110.776 88.5392C110.667 88.1739 110.508 87.8956 110.301 87.7041C110.096 87.5127 109.849 87.417 109.56 87.417C109.126 87.417 108.787 87.6309 108.543 88.0587C108.299 88.4845 108.177 89.0872 108.177 89.8666C108.177 90.3863 108.232 90.8277 108.341 91.1911C108.45 91.5544 108.608 91.8309 108.813 92.0204C109.02 92.2098 109.269 92.3046 109.56 92.3046Z" fill="black"/>
<path d="M136.066 92.9492C135.82 92.9453 135.574 92.8984 135.328 92.8086C135.082 92.7187 134.857 92.5673 134.654 92.3544C134.451 92.1395 134.288 91.8494 134.165 91.4841C134.042 91.1169 133.98 90.6558 133.98 90.101C133.98 89.5697 134.03 89.0989 134.129 88.6887C134.229 88.2765 134.374 87.9297 134.563 87.6484C134.753 87.3652 134.981 87.1503 135.249 87.0038C135.518 86.8573 135.822 86.784 136.16 86.784C136.496 86.784 136.795 86.8514 137.057 86.9862C137.32 87.119 137.535 87.3046 137.701 87.543C137.867 87.7813 137.975 88.0557 138.024 88.3664H137.309C137.242 88.0968 137.113 87.8731 136.922 87.6953C136.73 87.5176 136.477 87.4287 136.16 87.4287C135.695 87.4287 135.329 87.6309 135.061 88.0352C134.796 88.4396 134.662 89.0071 134.66 89.7377H134.707C134.816 89.5717 134.946 89.43 135.096 89.3128C135.249 89.1937 135.417 89.1018 135.6 89.0374C135.784 88.9729 135.978 88.9407 136.184 88.9407C136.527 88.9407 136.842 89.0266 137.127 89.1985C137.412 89.3685 137.641 89.6039 137.813 89.9047C137.985 90.2036 138.071 90.5464 138.071 90.9332C138.071 91.3044 137.988 91.6443 137.822 91.953C137.655 92.2597 137.422 92.5038 137.121 92.6855C136.822 92.8652 136.471 92.9531 136.066 92.9492ZM136.066 92.3046C136.312 92.3046 136.533 92.243 136.729 92.12C136.926 91.9969 137.081 91.8318 137.194 91.6248C137.31 91.4177 137.367 91.1872 137.367 90.9332C137.367 90.6851 137.312 90.4595 137.2 90.2564C137.091 90.0512 136.94 89.8881 136.746 89.767C136.555 89.6459 136.336 89.5853 136.09 89.5853C135.904 89.5853 135.731 89.6224 135.571 89.6967C135.411 89.769 135.27 89.8686 135.149 89.9956C135.03 90.1225 134.936 90.2681 134.868 90.4322C134.799 90.5943 134.765 90.7652 134.765 90.945C134.765 91.1833 134.821 91.406 134.932 91.613C135.046 91.8201 135.2 91.9871 135.395 92.1141C135.593 92.2411 135.816 92.3046 136.066 92.3046ZM141.18 92.9492C140.739 92.9492 140.363 92.8291 140.052 92.5888C139.742 92.3466 139.504 91.9959 139.34 91.5369C139.176 91.0758 139.094 90.5191 139.094 89.8666C139.094 89.2181 139.176 88.6643 139.34 88.2052C139.506 87.7442 139.744 87.3925 140.055 87.1503C140.368 86.9061 140.743 86.784 141.18 86.784C141.618 86.784 141.992 86.9061 142.303 87.1503C142.615 87.3925 142.853 87.7442 143.018 88.2052C143.184 88.6643 143.267 89.2181 143.267 89.8666C143.267 90.5191 143.185 91.0758 143.02 91.5369C142.856 91.9959 142.619 92.3466 142.308 92.5888C141.998 92.8291 141.622 92.9492 141.18 92.9492ZM141.18 92.3046C141.618 92.3046 141.958 92.0936 142.2 91.6717C142.442 91.2497 142.563 90.648 142.563 89.8666C142.563 89.347 142.508 88.9045 142.396 88.5392C142.287 88.1739 142.129 87.8956 141.922 87.7041C141.717 87.5127 141.469 87.417 141.18 87.417C140.747 87.417 140.408 87.6309 140.164 88.0587C139.919 88.4845 139.797 89.0872 139.797 89.8666C139.797 90.3863 139.852 90.8277 139.961 91.1911C140.071 91.5544 140.228 91.8309 140.433 92.0204C140.64 92.2098 140.889 92.3046 141.18 92.3046Z" fill="black"/>
<path d="M166.949 93.0742C166.546 93.0742 166.191 93.0029 165.882 92.8603C165.575 92.7158 165.336 92.5175 165.164 92.2655C164.992 92.0115 164.907 91.7224 164.909 91.3981C164.907 91.1442 164.957 90.9098 165.059 90.6949C165.16 90.478 165.299 90.2974 165.475 90.1528C165.652 90.0063 165.851 89.9135 166.07 89.8744V89.8393C165.782 89.765 165.554 89.6039 165.384 89.3558C165.214 89.1057 165.13 88.8215 165.132 88.5031C165.13 88.1983 165.207 87.9258 165.363 87.6855C165.52 87.4453 165.735 87.2558 166.008 87.1171C166.283 86.9784 166.597 86.909 166.949 86.909C167.296 86.909 167.607 86.9784 167.88 87.1171C168.154 87.2558 168.369 87.4453 168.525 87.6855C168.683 87.9258 168.763 88.1983 168.765 88.5031C168.763 88.8215 168.676 89.1057 168.505 89.3558C168.335 89.6039 168.109 89.765 167.828 89.8393V89.8744C168.045 89.9135 168.24 90.0063 168.414 90.1528C168.588 90.2974 168.726 90.478 168.83 90.6949C168.933 90.9098 168.986 91.1442 168.988 91.3981C168.986 91.7224 168.898 92.0115 168.724 92.2655C168.552 92.5175 168.313 92.7158 168.006 92.8603C167.702 93.0029 167.349 93.0742 166.949 93.0742ZM166.949 92.4296C167.22 92.4296 167.455 92.3856 167.652 92.2977C167.849 92.2098 168.002 92.0858 168.109 91.9256C168.216 91.7654 168.271 91.5779 168.273 91.363C168.271 91.1364 168.213 90.9361 168.097 90.7623C167.982 90.5884 167.825 90.4517 167.626 90.352C167.428 90.2524 167.203 90.2026 166.949 90.2026C166.693 90.2026 166.464 90.2524 166.263 90.352C166.064 90.4517 165.906 90.5884 165.791 90.7623C165.678 90.9361 165.622 91.1364 165.624 91.363C165.622 91.5779 165.674 91.7654 165.779 91.9256C165.887 92.0858 166.04 92.2098 166.24 92.2977C166.439 92.3856 166.675 92.4296 166.949 92.4296ZM166.949 89.5814C167.164 89.5814 167.354 89.5384 167.52 89.4525C167.688 89.3665 167.82 89.2464 167.916 89.092C168.011 88.9377 168.06 88.757 168.062 88.55C168.06 88.3468 168.012 88.17 167.919 88.0196C167.825 87.8672 167.695 87.75 167.529 87.668C167.363 87.584 167.169 87.542 166.949 87.542C166.724 87.542 166.528 87.584 166.36 87.668C166.192 87.75 166.062 87.8672 165.97 88.0196C165.878 88.17 165.833 88.3468 165.835 88.55C165.833 88.757 165.879 88.9377 165.973 89.092C166.069 89.2464 166.2 89.3665 166.368 89.4525C166.536 89.5384 166.73 89.5814 166.949 89.5814ZM172.068 93.0742C171.627 93.0742 171.251 92.9541 170.94 92.7138C170.63 92.4716 170.392 92.1209 170.228 91.6619C170.064 91.2008 169.982 90.6441 169.982 89.9916C169.982 89.3431 170.064 88.7893 170.228 88.3302C170.394 87.8692 170.633 87.5175 170.943 87.2753C171.256 87.0311 171.631 86.909 172.068 86.909C172.506 86.909 172.88 87.0311 173.191 87.2753C173.503 87.5175 173.742 87.8692 173.906 88.3302C174.072 88.7893 174.155 89.3431 174.155 89.9916C174.155 90.6441 174.073 91.2008 173.909 91.6619C173.745 92.1209 173.507 92.4716 173.197 92.7138C172.886 92.9541 172.51 93.0742 172.068 93.0742ZM172.068 92.4296C172.506 92.4296 172.846 92.2186 173.088 91.7967C173.33 91.3747 173.452 90.773 173.452 89.9916C173.452 89.472 173.396 89.0295 173.285 88.6642C173.175 88.2989 173.017 88.0206 172.81 87.8291C172.605 87.6377 172.358 87.542 172.068 87.542C171.635 87.542 171.296 87.7559 171.052 88.1837C170.807 88.6095 170.685 89.2122 170.685 89.9916C170.685 90.5113 170.74 90.9527 170.849 91.3161C170.959 91.6794 171.116 91.9559 171.321 92.1454C171.528 92.3348 171.777 92.4296 172.068 92.4296Z" fill="black"/>
<path d="M196.102 86.1629V92.1641H195.376V86.9248H195.341L193.875 87.8976V87.1592L195.376 86.1629H196.102ZM199.786 92.2461C199.344 92.2461 198.968 92.126 198.658 91.8857C198.347 91.6435 198.11 91.2928 197.946 90.8337C197.781 90.3727 197.699 89.816 197.699 89.1635C197.699 88.5149 197.781 87.9611 197.946 87.5021C198.112 87.041 198.35 86.6894 198.661 86.4472C198.973 86.203 199.348 86.0809 199.786 86.0809C200.223 86.0809 200.597 86.203 200.908 86.4472C201.221 86.6894 201.459 87.041 201.623 87.5021C201.789 87.9611 201.872 88.5149 201.872 89.1635C201.872 89.816 201.79 90.3727 201.626 90.8337C201.462 91.2928 201.225 91.6435 200.914 91.8857C200.603 92.126 200.227 92.2461 199.786 92.2461ZM199.786 91.6015C200.223 91.6015 200.563 91.3905 200.805 90.9685C201.048 90.5466 201.169 89.9449 201.169 89.1635C201.169 88.6439 201.113 88.2014 201.002 87.8361C200.892 87.4708 200.734 87.1924 200.527 87.001C200.322 86.8096 200.075 86.7138 199.786 86.7138C199.352 86.7138 199.013 86.9277 198.769 87.3556C198.525 87.7814 198.403 88.3841 198.403 89.1635C198.403 89.6831 198.457 90.1246 198.567 90.488C198.676 90.8513 198.833 91.1277 199.039 91.3172C199.246 91.5067 199.495 91.6015 199.786 91.6015ZM204.943 92.2461C204.501 92.2461 204.125 92.126 203.815 91.8857C203.504 91.6435 203.267 91.2928 203.103 90.8337C202.939 90.3727 202.857 89.816 202.857 89.1635C202.857 88.5149 202.939 87.9611 203.103 87.5021C203.269 87.041 203.507 86.6894 203.818 86.4472C204.13 86.203 204.505 86.0809 204.943 86.0809C205.381 86.0809 205.755 86.203 206.065 86.4472C206.378 86.6894 206.616 87.041 206.78 87.5021C206.946 87.9611 207.029 88.5149 207.029 89.1635C207.029 89.816 206.947 90.3727 206.783 90.8337C206.619 91.2928 206.382 91.6435 206.071 91.8857C205.761 92.126 205.384 92.2461 204.943 92.2461ZM204.943 91.6015C205.381 91.6015 205.72 91.3905 205.963 90.9685C206.205 90.5466 206.326 89.9449 206.326 89.1635C206.326 88.6439 206.27 88.2014 206.159 87.8361C206.05 87.4708 205.891 87.1924 205.684 87.001C205.479 86.8096 205.232 86.7138 204.943 86.7138C204.509 86.7138 204.17 86.9277 203.926 87.3556C203.682 87.7814 203.56 88.3841 203.56 89.1635C203.56 89.6831 203.615 90.1246 203.724 90.488C203.833 90.8513 203.991 91.1277 204.196 91.3172C204.403 91.5067 204.652 91.6015 204.943 91.6015Z" fill="black"/>
<path d="M227.103 86.1629V92.1641H226.376V86.9248H226.341L224.876 87.8976V87.1592L226.376 86.1629H227.103ZM228.829 92.1641V91.6366L230.81 89.4682C231.042 89.2143 231.234 88.9936 231.384 88.806C231.534 88.6165 231.646 88.4388 231.718 88.2727C231.792 88.1047 231.829 87.9289 231.829 87.7453C231.829 87.5343 231.779 87.3516 231.677 87.1973C231.577 87.043 231.441 86.9238 231.267 86.8398C231.093 86.7558 230.898 86.7138 230.681 86.7138C230.45 86.7138 230.249 86.7617 230.077 86.8574C229.907 86.9512 229.775 87.083 229.682 87.253C229.59 87.4229 229.544 87.6222 229.544 87.8508H228.852C228.852 87.4991 228.933 87.1905 229.096 86.9248C229.258 86.6591 229.478 86.4521 229.758 86.3036C230.039 86.1551 230.355 86.0809 230.704 86.0809C231.056 86.0809 231.367 86.1551 231.639 86.3036C231.911 86.4521 232.123 86.6523 232.278 86.9043C232.432 87.1563 232.509 87.4366 232.509 87.7453C232.509 87.966 232.469 88.1819 232.389 88.3929C232.311 88.6019 232.174 88.8353 231.979 89.0932C231.785 89.3491 231.517 89.6616 231.173 90.0309L229.825 91.4725V91.5194H232.615V92.1641H228.829ZM235.782 92.2461C235.341 92.2461 234.965 92.126 234.654 91.8857C234.344 91.6435 234.106 91.2928 233.942 90.8337C233.778 90.3727 233.696 89.816 233.696 89.1635C233.696 88.5149 233.778 87.9611 233.942 87.5021C234.108 87.041 234.347 86.6894 234.657 86.4472C234.97 86.203 235.345 86.0809 235.782 86.0809C236.22 86.0809 236.594 86.203 236.905 86.4472C237.217 86.6894 237.455 87.041 237.62 87.5021C237.786 87.9611 237.869 88.5149 237.869 89.1635C237.869 89.816 237.787 90.3727 237.623 90.8337C237.458 91.2928 237.221 91.6435 236.91 91.8857C236.6 92.126 236.224 92.2461 235.782 92.2461ZM235.782 91.6015C236.22 91.6015 236.56 91.3905 236.802 90.9685C237.044 90.5466 237.165 89.9449 237.165 89.1635C237.165 88.6439 237.11 88.2014 236.998 87.8361C236.889 87.4708 236.731 87.1924 236.524 87.001C236.319 86.8096 236.071 86.7138 235.782 86.7138C235.349 86.7138 235.01 86.9277 234.766 87.3556C234.521 87.7814 234.399 88.3841 234.399 89.1635C234.399 89.6831 234.454 90.1246 234.563 90.488C234.673 90.8513 234.83 91.1277 235.035 91.3172C235.242 91.5067 235.491 91.6015 235.782 91.6015Z" fill="black"/>
<path d="M31.356 57.7578H128.724C130.547 57.7578 132.025 59.2355 132.025 61.0584V76.7363C132.025 78.5592 130.547 80.037 128.724 80.037H31.356V57.7578Z" fill="#63ABFD"/>
<path d="M31.356 31.3594H224.442C226.265 31.3594 227.742 32.8371 227.742 34.66V50.3379C227.742 52.1608 226.265 53.6385 224.442 53.6385H31.356V31.3594Z" fill="#63ABFD"/>
<path d="M31.356 4.95312H116.347C118.17 4.95312 119.647 6.43086 119.647 8.25374V23.9316C119.647 25.7545 118.17 27.2323 116.347 27.2323H31.356V4.95312Z" fill="#63ABFD"/>
<defs>
<linearGradient id="paint0_linear_232_1664" x1="0.482876" y1="39" x2="16.541" y2="44.638" gradientUnits="userSpaceOnUse">
<stop stop-color="#D9D9D9"/>
<stop offset="1" stop-color="#E9E9E9"/>
</linearGradient>
<linearGradient id="paint1_linear_232_1664" x1="0.482876" y1="12" x2="16.541" y2="17.638" gradientUnits="userSpaceOnUse">
<stop stop-color="#D9D9D9"/>
<stop offset="1" stop-color="#E9E9E9"/>
</linearGradient>
</defs>
</svg>
