<svg width="252" height="101" viewBox="0 0 252 101" fill="none" xmlns="http://www.w3.org/2000/svg">
<rect width="252" height="101" fill="white"/>
<rect x="29.7866" y="3.70945" width="221.801" height="78.2759" stroke="#F1F1F1" stroke-width="0.825153"/>
<path d="M29.374 29.6641H252" stroke="#F1F1F1" stroke-width="0.825153"/>
<path d="M29.374 56.0312H252" stroke="#F1F1F1" stroke-width="0.825153"/>
<path d="M66.4785 3.29688L66.4785 81.574" stroke="#F1F1F1" stroke-width="0.825153"/>
<path d="M103.581 3.29688L103.581 81.574" stroke="#F1F1F1" stroke-width="0.825153"/>
<path d="M140.689 3.29688L140.689 81.574" stroke="#F1F1F1" stroke-width="0.825153"/>
<path d="M177.792 3.29688L177.792 81.574" stroke="#F1F1F1" stroke-width="0.825153"/>
<path d="M214.896 3.29688L214.896 81.574" stroke="#F1F1F1" stroke-width="0.825153"/>
<rect x="6.75879" y="75" width="14.4828" height="6" rx="3" fill="url(#paint0_linear_232_1584)" fill-opacity="0.5"/>
<rect x="6.75879" y="50" width="14.4828" height="6" rx="3" fill="url(#paint1_linear_232_1584)" fill-opacity="0.5"/>
<rect x="6.75879" y="26" width="14.4828" height="6" rx="3" fill="url(#paint2_linear_232_1584)" fill-opacity="0.5"/>
<rect x="6.75879" y="3" width="14.4828" height="6" rx="3" fill="url(#paint3_linear_232_1584)" fill-opacity="0.5"/>
<rect x="40.5518" y="87" width="14.4828" height="6" rx="3" fill="url(#paint4_linear_232_1584)" fill-opacity="0.5"/>
<rect x="77.2412" y="87" width="14.4828" height="6" rx="3" fill="url(#paint5_linear_232_1584)" fill-opacity="0.5"/>
<rect x="113.931" y="87" width="14.4828" height="6" rx="3" fill="url(#paint6_linear_232_1584)" fill-opacity="0.5"/>
<rect x="150.621" y="87" width="14.4828" height="6" rx="3" fill="url(#paint7_linear_232_1584)" fill-opacity="0.5"/>
<rect x="187.311" y="87" width="14.4828" height="6" rx="3" fill="url(#paint8_linear_232_1584)" fill-opacity="0.5"/>
<rect x="224" y="87" width="14.4828" height="6" rx="3" fill="url(#paint9_linear_232_1584)" fill-opacity="0.5"/>
<path d="M30.9219 31.0559C46.3886 34.0537 82.3016 38.95 102.22 34.5533C127.117 29.0574 158.805 17.2329 169.745 12.9029C180.685 8.57278 193.134 2.57727 213.882 10.4047C234.63 18.2322 244.061 25.8931 251.229 26.5593" stroke="#63ABFD" stroke-width="0.825153"/>
<path d="M30.507 31.3534C30.507 32.0629 29.9747 32.5912 29.3739 32.5912C28.7731 32.5912 28.2407 32.0629 28.2407 31.3534C28.2407 30.644 28.7731 30.1157 29.3739 30.1157C29.9747 30.1157 30.507 30.644 30.507 31.3534Z" fill="#63ABFD" stroke="#63ABFD" stroke-width="0.825153"/>
<path d="M67.612 36.3066C67.612 37.016 67.0796 37.5443 66.4788 37.5443C65.878 37.5443 65.3457 37.016 65.3457 36.3066C65.3457 35.5971 65.878 35.0688 66.4788 35.0688C67.0796 35.0688 67.612 35.5971 67.612 36.3066Z" fill="#63ABFD" stroke="#63ABFD" stroke-width="0.825153"/>
<path d="M104.716 33.83C104.716 34.5394 104.183 35.0677 103.582 35.0677C102.982 35.0677 102.449 34.5394 102.449 33.83C102.449 33.1206 102.982 32.5923 103.582 32.5923C104.183 32.5923 104.716 33.1206 104.716 33.83Z" fill="#63ABFD" stroke="#63ABFD" stroke-width="0.825153"/>
<path d="M141.821 23.9316C141.821 24.641 141.289 25.1693 140.688 25.1693C140.088 25.1693 139.555 24.641 139.555 23.9316C139.555 23.2221 140.088 22.6938 140.688 22.6938C141.289 22.6938 141.821 23.2221 141.821 23.9316Z" fill="#63ABFD" stroke="#63ABFD" stroke-width="0.825153"/>
<path d="M178.926 9.90031C178.926 10.6097 178.394 11.138 177.793 11.138C177.192 11.138 176.66 10.6097 176.66 9.90031C176.66 9.19087 177.192 8.66258 177.793 8.66258C178.394 8.66258 178.926 9.19087 178.926 9.90031Z" fill="#63ABFD" stroke="#63ABFD" stroke-width="0.825153"/>
<path d="M251.588 26.4081C251.588 27.1176 251.056 27.6458 250.455 27.6458C249.854 27.6458 249.322 27.1176 249.322 26.4081C249.322 25.6987 249.854 25.1704 250.455 25.1704C251.056 25.1704 251.588 25.6987 251.588 26.4081Z" fill="#63ABFD" stroke="#63ABFD" stroke-width="0.825153"/>
<path d="M216.028 10.7284C216.028 11.4379 215.496 11.9662 214.895 11.9662C214.294 11.9662 213.762 11.4379 213.762 10.7284C213.762 10.019 214.294 9.4907 214.895 9.4907C215.496 9.4907 216.028 10.019 216.028 10.7284Z" fill="#63ABFD" stroke="#63ABFD" stroke-width="0.825153"/>
<defs>
<linearGradient id="paint0_linear_232_1584" x1="5.31051" y1="75" x2="21.3687" y2="80.638" gradientUnits="userSpaceOnUse">
<stop stop-color="#D9D9D9"/>
<stop offset="1" stop-color="#E9E9E9"/>
</linearGradient>
<linearGradient id="paint1_linear_232_1584" x1="5.31051" y1="50" x2="21.3687" y2="55.638" gradientUnits="userSpaceOnUse">
<stop stop-color="#D9D9D9"/>
<stop offset="1" stop-color="#E9E9E9"/>
</linearGradient>
<linearGradient id="paint2_linear_232_1584" x1="5.31051" y1="26" x2="21.3687" y2="31.638" gradientUnits="userSpaceOnUse">
<stop stop-color="#D9D9D9"/>
<stop offset="1" stop-color="#E9E9E9"/>
</linearGradient>
<linearGradient id="paint3_linear_232_1584" x1="5.31051" y1="3" x2="21.3687" y2="8.63797" gradientUnits="userSpaceOnUse">
<stop stop-color="#D9D9D9"/>
<stop offset="1" stop-color="#E9E9E9"/>
</linearGradient>
<linearGradient id="paint4_linear_232_1584" x1="39.1035" y1="87" x2="55.1616" y2="92.638" gradientUnits="userSpaceOnUse">
<stop stop-color="#D9D9D9"/>
<stop offset="1" stop-color="#E9E9E9"/>
</linearGradient>
<linearGradient id="paint5_linear_232_1584" x1="75.7929" y1="87" x2="91.8511" y2="92.638" gradientUnits="userSpaceOnUse">
<stop stop-color="#D9D9D9"/>
<stop offset="1" stop-color="#E9E9E9"/>
</linearGradient>
<linearGradient id="paint6_linear_232_1584" x1="112.483" y1="87" x2="128.541" y2="92.638" gradientUnits="userSpaceOnUse">
<stop stop-color="#D9D9D9"/>
<stop offset="1" stop-color="#E9E9E9"/>
</linearGradient>
<linearGradient id="paint7_linear_232_1584" x1="149.172" y1="87" x2="165.23" y2="92.638" gradientUnits="userSpaceOnUse">
<stop stop-color="#D9D9D9"/>
<stop offset="1" stop-color="#E9E9E9"/>
</linearGradient>
<linearGradient id="paint8_linear_232_1584" x1="185.862" y1="87" x2="201.92" y2="92.638" gradientUnits="userSpaceOnUse">
<stop stop-color="#D9D9D9"/>
<stop offset="1" stop-color="#E9E9E9"/>
</linearGradient>
<linearGradient id="paint9_linear_232_1584" x1="222.552" y1="87" x2="238.61" y2="92.638" gradientUnits="userSpaceOnUse">
<stop stop-color="#D9D9D9"/>
<stop offset="1" stop-color="#E9E9E9"/>
</linearGradient>
</defs>
</svg>
